<svg xmlns="http://www.w3.org/2000/svg" viewBox="0 0 279 278" fill="currentColor"><path d="M139.11 111.59C129.45 111.59 121.62 119.42 121.62 129.07C121.62 138.72 129.45 146.56 139.11 146.56C148.77 146.56 156.6 138.73 156.6 129.07C156.6 119.41 148.77 111.59 139.11 111.59Z" fill="currentColor"/><path d="M199.3 111.59C189.64 111.59 181.81 119.42 181.81 129.07C181.81 138.72 189.64 146.56 199.3 146.56C208.96 146.56 216.79 138.73 216.79 129.07C216.79 119.41 208.96 111.59 199.3 111.59Z" fill="currentColor"/><path d="M78.9002 111.59C69.2402 111.59 61.4102 119.42 61.4102 129.07C61.4102 138.72 69.2402 146.56 78.9002 146.56C88.5602 146.56 96.3902 138.73 96.3902 129.07C96.3902 119.41 88.5602 111.59 78.9002 111.59Z" fill="currentColor"/><path d="M139.09 0.0595703C67.9598 0.0595703 10.0898 57.9296 10.0898 129.05C10.0898 200.17 67.9598 258.05 139.09 258.05C153.47 258.05 167.57 255.7 181.04 251.07L227.58 277.94V222.91C253.36 198.59 268.09 164.54 268.09 129.05C268.09 57.9296 210.22 0.0595703 139.09 0.0595703ZM217.55 215.84L215.58 217.63V257.16L182.2 237.89L179.56 238.86C166.62 243.63 153 246.05 139.09 246.05C74.5798 246.05 22.0898 193.57 22.0898 129.05C22.0898 64.5296 74.5798 12.0596 139.09 12.0596C203.6 12.0596 256.09 64.5396 256.09 129.06C256.09 162.06 242.05 193.69 217.56 215.84H217.55Z" fill="currentColor"/></svg>
